<svg version="1.1" xmlns="http://www.w3.org/2000/svg" viewBox="0 0 1427.7019286617806 929.4065774612242" width="1427.7019286617806" height="929.4065774612242">
  <!-- svg-source:excalidraw -->
  
  <defs>
    <style class="style-fonts">
      @font-face {
        font-family: "Virgil";
        src: url("https://excalidraw.com/Virgil.woff2");
      }
      @font-face {
        font-family: "Cascadia";
        src: url("https://excalidraw.com/Cascadia.woff2");
      }
      @font-face {
        font-family: "Assistant";
        src: url("https://excalidraw.com/Assistant-Regular.woff2");
      }
    </style>
    
  </defs>
  <rect x="0" y="0" width="1427.7019286617806" height="929.4065774612242" fill="#ffffff"></rect><g stroke-linecap="round"><g transform="translate(97.42187024614509 840.4970948013703) rotate(0 519.4354375860738 -344.1136173026624)"><path d="M0.99 -0.24 C173.88 -114.83, 864.96 -573.55, 1037.74 -688.25 M0.05 -1.42 C173.26 -115.74, 866.54 -572.42, 1039.86 -686.72" stroke="#1971c2" stroke-width="2" fill="none"></path></g></g><mask></mask><g stroke-linecap="round"><g transform="translate(97.9520070046359 839.7688163921855) rotate(0 0.13759133128920098 -375.8022953578427)"><path d="M-0.3 0.29 C-0.34 -124.82, 0.76 -625.27, 0.78 -750.73 M1.74 -0.61 C1.5 -126.04, 0.58 -627.22, 0.09 -752.4" stroke="#1e1e1e" stroke-width="4" fill="none"></path></g><g transform="translate(97.9520070046359 839.7688163921855) rotate(0 0.13759133128920098 -375.8022953578427)"><path d="M8.71 -728.93 C5.9 -737.12, 3.56 -747.72, 0.09 -752.4 M8.71 -728.93 C7.37 -733.54, 4.07 -738.71, 0.09 -752.4" stroke="#1e1e1e" stroke-width="4" fill="none"></path></g><g transform="translate(97.9520070046359 839.7688163921855) rotate(0 0.13759133128920098 -375.8022953578427)"><path d="M-8.4 -728.88 C-4.64 -737.05, -0.42 -747.66, 0.09 -752.4 M-8.4 -728.88 C-5.91 -733.42, -5.38 -738.6, 0.09 -752.4" stroke="#1e1e1e" stroke-width="4" fill="none"></path></g></g><mask></mask><g stroke-linecap="round"><g transform="translate(97.93548511573971 839.3805520031251) rotate(0 592.2392180183425 0)"><path d="M0.24 -0.63 C197.76 -0.42, 987.2 1.16, 1184.71 1.07 M-1.09 1.66 C196.33 1.57, 986.2 -0.13, 1183.89 -0.49" stroke="#1e1e1e" stroke-width="4" fill="none"></path></g><g transform="translate(97.93548511573971 839.3805520031251) rotate(0 592.2392180183425 0)"><path d="M1160.41 8.11 C1165.62 6.16, 1174.69 4.91, 1183.89 -0.49 M1160.41 8.11 C1164.68 6.72, 1170.28 4.89, 1183.89 -0.49" stroke="#1e1e1e" stroke-width="4" fill="none"></path></g><g transform="translate(97.93548511573971 839.3805520031251) rotate(0 592.2392180183425 0)"><path d="M1160.38 -8.99 C1165.57 -6.39, 1174.65 -3.1, 1183.89 -0.49 M1160.38 -8.99 C1164.6 -6.93, 1170.21 -5.33, 1183.89 -0.49" stroke="#1e1e1e" stroke-width="4" fill="none"></path></g></g><mask></mask><g stroke-linecap="round"><g transform="translate(342.8450074847581 824.0805553331907) rotate(0 0 15.671568223079703)"><path d="M-0.36 -0.09 C-0.38 5.07, 0.01 26.04, 0.15 31.24 M0.45 -0.62 C0.35 4.6, -0.2 26.52, -0.21 31.89" stroke="#1e1e1e" stroke-width="4" fill="none"></path></g></g><mask></mask><g stroke-linecap="round"><g transform="translate(605.5505602101357 824.9368569326934) rotate(0 0 15.671568223079703)"><path d="M0.28 -0.51 C0.23 4.73, -0.26 26.04, -0.37 31.32 M-0.24 0.42 C-0.11 5.76, 0.51 26.79, 0.67 32" stroke="#1e1e1e" stroke-width="4" fill="none"></path></g></g><mask></mask><g stroke-linecap="round"><g transform="translate(887.3258532899235 824.3155612691114) rotate(0 0 15.671568223079703)"><path d="M0.45 -0.34 C0.47 4.81, -0.35 25.61, -0.35 30.87 M0.01 0.67 C0.25 5.88, 0.65 26.15, 0.7 31.32" stroke="#1e1e1e" stroke-width="4" fill="none"></path></g></g><mask></mask><g transform="translate(1004.4860627246949 93.6777480140158) rotate(0 150.44395446777344 22.5)"><text x="0" y="0" font-family="Virgil, Segoe UI Emoji" font-size="36px" fill="#1971c2" text-anchor="start" style="white-space: pre;" direction="ltr" dominant-baseline="text-before-edge">Streaming S/year</text></g><g stroke-linecap="round"><g transform="translate(342.44496634920785 820.6469985098895) rotate(0 -0.0008700503483964894 -24.306098203618944)"><path d="M0.23 0.19 C0.28 -7.77, 0.57 -40.07, 0.53 -48.28 M-0.31 -0.18 C-0.3 -8.26, 0.39 -41, 0.37 -49.08" stroke="#e03131" stroke-width="4" fill="none"></path></g></g><mask></mask><g transform="translate(334.4524798678328 873.8767383254811) rotate(0 4.877998352050781 22.5)"><text x="0" y="0" font-family="Virgil, Segoe UI Emoji" font-size="36px" fill="#1e1e1e" text-anchor="start" style="white-space: pre;" direction="ltr" dominant-baseline="text-before-edge">1</text></g><g transform="translate(595.7984196486227 873.4618660313699) rotate(0 12.815994262695312 22.5)"><text x="0" y="0" font-family="Virgil, Segoe UI Emoji" font-size="36px" fill="#1e1e1e" text-anchor="start" style="white-space: pre;" direction="ltr" dominant-baseline="text-before-edge">2</text></g><g transform="translate(877.1609467303238 874.4065774612242) rotate(0 12.25799560546875 22.5)"><text x="0" y="0" font-family="Virgil, Segoe UI Emoji" font-size="36px" fill="#1e1e1e" text-anchor="start" style="white-space: pre;" direction="ltr" dominant-baseline="text-before-edge">3</text></g><g transform="translate(1118.7424552244083 870.7827025351966) rotate(0 11.519996643066406 22.5)"><text x="0" y="0" font-family="Virgil, Segoe UI Emoji" font-size="36px" fill="#1e1e1e" text-anchor="start" style="white-space: pre;" direction="ltr" dominant-baseline="text-before-edge">4</text></g><g stroke-linecap="round"><g transform="translate(1129.2832551926726 824.4158001948869) rotate(0 0 15.671568223079703)"><path d="M0.4 0.2 C0.44 5.43, 0.35 25.58, 0.3 30.84 M-0.06 -0.17 C-0.07 5.15, 0.05 26.1, 0.03 31.28" stroke="#1e1e1e" stroke-width="4" fill="none"></path></g></g><mask></mask><g transform="translate(1322.0859771236946 818.6905298451037) rotate(0 47.80797576904297 22.5)"><text x="0" y="0" font-family="Virgil, Segoe UI Emoji" font-size="36px" fill="#1e1e1e" text-anchor="start" style="white-space: pre;" direction="ltr" dominant-baseline="text-before-edge">years</text></g><g transform="translate(44.63873680586556 10) rotate(0 56.933982849121094 22.5)"><text x="0" y="0" font-family="Virgil, Segoe UI Emoji" font-size="36px" fill="#1e1e1e" text-anchor="start" style="white-space: pre;" direction="ltr" dominant-baseline="text-before-edge">tokens</text></g><g stroke-linecap="round"><g transform="translate(74.23430622858405 775.0809058810275) rotate(0 23.294928942406983 0)"><path d="M-0.29 0.26 C7.43 0.26, 38.33 0.29, 46.15 0.32 M0.56 -0.09 C8.46 -0.27, 39.54 -0.43, 47.16 -0.49" stroke="#1e1e1e" stroke-width="4" fill="none"></path></g></g><mask></mask><g stroke-linecap="round"><g transform="translate(73.70419786408843 720.9487432081188) rotate(0 23.294928942406983 0)"><path d="M-0.07 0.35 C7.74 0.44, 39.2 0.43, 46.91 0.28 M-0.77 0.06 C6.99 0, 38.64 -0.5, 46.64 -0.55" stroke="#1e1e1e" stroke-width="4" fill="none"></path></g></g><mask></mask><g stroke-linecap="round"><g transform="translate(73.49219878114644 668.8561370051641) rotate(0 23.294928942406983 0)"><path d="M-0.46 -0.17 C7.32 -0.14, 39.01 -0.25, 46.88 -0.26 M0.3 -0.73 C8.03 -0.59, 38.89 0.14, 46.59 0.3" stroke="#1e1e1e" stroke-width="4" fill="none"></path></g></g><mask></mask><g stroke-linecap="round"><g transform="translate(74.509863766421 616.3190094355705) rotate(0 23.294928942406983 0)"><path d="M-0.26 0.22 C7.47 0.07, 38.27 -0.31, 46.05 -0.41 M0.61 -0.15 C8.52 0.01, 39.45 0.05, 47 0.08" stroke="#1e1e1e" stroke-width="4" fill="none"></path></g></g><mask></mask><g stroke-linecap="round"><g transform="translate(75.32210218524665 569.2644438645133) rotate(0 23.294928942406983 0)"><path d="M-0.53 -0.4 C7.21 -0.34, 39.01 -0.17, 46.78 -0.11 M0.2 0.58 C7.85 0.76, 38.63 0.54, 46.44 0.53" stroke="#1e1e1e" stroke-width="4" fill="none"></path></g></g><mask></mask><g stroke-linecap="round"><g transform="translate(74.26794518870815 519.0607972029878) rotate(0 23.294928942406983 0)"><path d="M0.19 -0.11 C7.95 -0.05, 38.37 -0.12, 46.04 -0.04 M-0.38 -0.64 C7.58 -0.46, 39.03 0.61, 46.99 0.64" stroke="#1e1e1e" stroke-width="4" fill="none"></path></g></g><mask></mask><g stroke-linecap="round"><g transform="translate(73.1030713616214 466.258429339125) rotate(0 23.294928942406983 0)"><path d="M-0.55 -0.04 C7.13 0.05, 38.37 0.34, 46.24 0.4 M0.17 -0.53 C8.01 -0.59, 39.6 -0.35, 47.29 -0.36" stroke="#1e1e1e" stroke-width="4" fill="none"></path></g></g><mask></mask><g stroke-linecap="round"><g transform="translate(73.98244011400482 415.42710954668985) rotate(0 23.294928942406983 0)"><path d="M-0.35 0.4 C7.51 0.47, 38.75 0.33, 46.65 0.35 M0.47 0.13 C8.31 0.05, 38.51 -0.37, 46.24 -0.44" stroke="#1e1e1e" stroke-width="4" fill="none"></path></g></g><mask></mask><g stroke-linecap="round"><g transform="translate(74.43734430756962 367.35864497720627) rotate(0 23.294928942406983 0)"><path d="M0.3 -0.08 C8.13 -0.1, 39.17 -0.49, 46.94 -0.47 M-0.21 -0.6 C7.58 -0.53, 38.86 -0.22, 46.68 0" stroke="#1e1e1e" stroke-width="4" fill="none"></path></g></g><mask></mask><g stroke-linecap="round"><g transform="translate(74.16625103917852 318.49746696037744) rotate(0 23.294928942406983 0)"><path d="M0.35 -0.47 C8.11 -0.44, 39.27 0.04, 46.89 0.06 M-0.14 0.49 C7.55 0.61, 38.74 0.85, 46.62 0.8" stroke="#1e1e1e" stroke-width="4" fill="none"></path></g></g><mask></mask><g stroke-linecap="round"><g transform="translate(75.09321215663681 267.5331858299718) rotate(0 23.294928942406983 0)"><path d="M0.3 0.06 C7.93 0.09, 38.29 -0.31, 46.09 -0.3 M-0.2 -0.38 C7.55 -0.24, 39.2 0.05, 47.07 0.24" stroke="#1e1e1e" stroke-width="4" fill="none"></path></g></g><mask></mask><g stroke-linecap="round"><g transform="translate(73.93470604932952 215.7347799787183) rotate(0 23.294928942406983 0)"><path d="M-0.5 -0.3 C7.3 -0.29, 39.25 0.04, 47.11 0.12 M0.25 0.73 C8 0.56, 39.26 -0.53, 46.94 -0.78" stroke="#1e1e1e" stroke-width="4" fill="none"></path></g></g><mask></mask><g stroke-linecap="round"><g transform="translate(73.72492416258729 163.90381379610278) rotate(0 23.294928942406983 0)"><path d="M-0.22 0.05 C7.42 -0.09, 38.36 -0.25, 46.14 -0.3 M0.66 -0.4 C8.44 -0.24, 39.57 0.14, 47.14 0.24" stroke="#1e1e1e" stroke-width="4" fill="none"></path></g></g><mask></mask><g transform="translate(78.22257362873773 859.1819753346878) rotate(0 12.383995056152344 22.5)"><text x="0" y="0" font-family="Virgil, Segoe UI Emoji" font-size="36px" fill="#1e1e1e" text-anchor="start" style="white-space: pre;" direction="ltr" dominant-baseline="text-before-edge">0</text></g><g transform="translate(26.842205996364584 754.8013573080431) rotate(0 4.8779983520507955 22.5)"><text x="0" y="0" font-family="Virgil, Segoe UI Emoji" font-size="36px" fill="#1e1e1e" text-anchor="start" style="white-space: pre;" direction="ltr" dominant-baseline="text-before-edge">1</text></g><g transform="translate(20.14497552023198 494.0250819019452) rotate(0 11.519996643066406 22.5)"><text x="0" y="0" font-family="Virgil, Segoe UI Emoji" font-size="36px" fill="#1e1e1e" text-anchor="start" style="white-space: pre;" direction="ltr" dominant-baseline="text-before-edge">6</text></g><g transform="translate(10 138.2219467581304) rotate(0 17.13599395751953 22.5)"><text x="0" y="0" font-family="Virgil, Segoe UI Emoji" font-size="36px" fill="#1e1e1e" text-anchor="start" style="white-space: pre;" direction="ltr" dominant-baseline="text-before-edge">13</text></g><g stroke-linecap="round"><g transform="translate(484.29188471986157 833.2157496885853) rotate(0 -0.07346046430325259 7.072357443847011)"><path d="M0.33 -0.41 C0.21 1.93, -0.46 11.67, -0.54 14.02 M-0.17 0.57 C-0.12 2.99, 0.55 12.41, 0.49 14.66" stroke="#1e1e1e" stroke-width="4" fill="none"></path></g></g><mask></mask><g stroke-linecap="round"><g transform="translate(409.9362732487629 832.5745077403745) rotate(0 -0.07346046430325259 7.072357443847011)"><path d="M0.2 -0.07 C0.34 2.28, 0.41 12.14, 0.34 14.47 M-0.36 -0.58 C-0.2 1.59, 0.21 11.17, 0.16 13.67" stroke="#1e1e1e" stroke-width="4" fill="none"></path></g></g><mask></mask><g stroke-linecap="round"><g transform="translate(546.3600571312288 833.7687526469105) rotate(0 -0.07346046430325259 7.072357443847011)"><path d="M0.07 -0.23 C-0.03 2.01, -0.5 11.57, -0.61 13.98 M-0.55 -0.83 C-0.49 1.72, 0.2 11.97, 0.38 14.6" stroke="#1e1e1e" stroke-width="4" fill="none"></path></g></g><mask></mask><g stroke-linecap="round"><g transform="translate(221.62288268671438 833.6186695144561) rotate(0 -0.07346046430325259 7.072357443847011)"><path d="M0.16 0.29 C0.15 2.64, -0.19 11.76, -0.25 14.02 M-0.42 -0.03 C-0.5 2.4, -0.71 12.26, -0.73 14.65" stroke="#1e1e1e" stroke-width="4" fill="none"></path></g></g><mask></mask><g stroke-linecap="round"><g transform="translate(154.96694484374132 831.8681930300154) rotate(0 -0.07346046430325259 7.072357443847011)"><path d="M-0.1 -0.13 C-0.16 2.13, -0.19 11.49, -0.18 13.85 M-0.81 -0.67 C-0.96 1.63, -0.71 11.85, -0.63 14.4" stroke="#1e1e1e" stroke-width="4" fill="none"></path></g></g><mask></mask><g stroke-linecap="round"><g transform="translate(291.39072872620744 833.0624379365513) rotate(0 -0.07346046430325259 7.072357443847011)"><path d="M-0.03 -0.3 C-0.02 2.06, 0.03 11.64, -0.03 14.04 M-0.71 0.74 C-0.76 3.2, -0.38 12.37, -0.41 14.68" stroke="#1e1e1e" stroke-width="4" fill="none"></path></g></g><mask></mask><g stroke-linecap="round"><g transform="translate(750.1570401210413 833.257405243448) rotate(0 -0.07346046430325259 7.072357443847011)"><path d="M0.1 0.28 C0.15 2.61, -0.05 11.9, -0.09 14.28 M-0.52 -0.06 C-0.5 2.08, -0.49 11.08, -0.49 13.39" stroke="#1e1e1e" stroke-width="4" fill="none"></path></g></g><mask></mask><g stroke-linecap="round"><g transform="translate(681.5302006461695 833.2327141471666) rotate(0 -0.07346046430325259 7.072357443847011)"><path d="M0.06 0.14 C0.02 2.52, -0.09 12.21, -0.15 14.6 M-0.58 -0.27 C-0.7 1.95, -0.55 11.55, -0.59 13.87" stroke="#1e1e1e" stroke-width="4" fill="none"></path></g></g><mask></mask><g stroke-linecap="round"><g transform="translate(818.9274955320584 833.3852703090901) rotate(0 -0.07346046430325259 7.072357443847011)"><path d="M0 0.45 C-0.07 2.85, -0.25 12.22, -0.33 14.5 M-0.67 0.21 C-0.83 2.44, -1.07 11.29, -0.85 13.71" stroke="#1e1e1e" stroke-width="4" fill="none"></path></g></g><mask></mask><g stroke-linecap="round"><g transform="translate(1012.1234863723482 834.2317540348106) rotate(0 -0.07346046430325259 7.072357443847011)"><path d="M0.25 0.29 C0.23 2.78, -0.19 12.35, -0.32 14.62 M-0.28 -0.03 C-0.38 2.34, -0.99 11.49, -0.85 13.9" stroke="#1e1e1e" stroke-width="4" fill="none"></path></g></g><mask></mask><g stroke-linecap="round"><g transform="translate(945.0404599240135 832.4498484495508) rotate(0 -0.07346046430325259 7.072357443847011)"><path d="M-0.18 0.48 C-0.31 2.75, -0.55 11.59, -0.53 13.95 M0.73 0.25 C0.75 2.57, 0.69 12.28, 0.51 14.56" stroke="#1e1e1e" stroke-width="4" fill="none"></path></g></g><mask></mask><g stroke-linecap="round"><g transform="translate(1074.4607460592401 833.4712351317049) rotate(0 -0.07346046430325259 7.072357443847011)"><path d="M-0.38 -0.19 C-0.37 2.18, -0.14 12.36, -0.07 14.68 M0.42 -0.76 C0.39 1.7, -0.36 11.5, -0.46 13.99" stroke="#1e1e1e" stroke-width="4" fill="none"></path></g></g><mask></mask><g stroke-linecap="round"><g transform="translate(341.62019475887206 772.533566575998) rotate(0 163.4394800782959 -301.2332161878871)"><path d="M-0.58 -1.18 C53.81 -101.78, 273 -502.6, 327.44 -602.9 M1.31 0.82 C55.5 -99.69, 272.25 -501.13, 326.79 -601.6" stroke="#e03131" stroke-width="2" fill="none"></path></g></g><mask></mask><g transform="translate(507.52360158523203 110.19012358128484) rotate(0 144.0179443359375 22.5)"><text x="0" y="0" font-family="Virgil, Segoe UI Emoji" font-size="36px" fill="#e03131" text-anchor="start" style="white-space: pre;" direction="ltr" dominant-baseline="text-before-edge">Unlocking U/year</text></g></svg>